PathFileType	4	(X/Y/Z)	Walk3.trc
DataRate	CameraRate	NumFrames	NumMarkers	Units	OrigDataRate	OrigDataStartFrame	OrigNumFrames
200.000000	200.000000	8	56	mm	200.000000	529	821
Frame#	Times		LWRR		RLFC		RBHD		RTH3		C7		RMFC		RToe		LElbow		RTB2		RMT1		RMT5		RTB3		LMT5		LWRU		LUA1		LCAR		RCAL		LACR1		RMMAL		RFA1		LASI		LLFC		LTH3		LTB2		LPSI		LCAL		LMMAL		LToe		RPSI		RLMAL		LLMAL		RUA1		LTH2		RFHD		RWRU		RBack		LBHD		LTH4		LMFC		LTB1		RCAR		LTH1		LTB3		RTH2		LTB4		LMT1		RElbow		RTH1		RTH4		RTB4		LFHD		RASI		RACR1		RWRR		T10		RTB1
			X1	Y1	Z1	X2	Y2	Z2	X3	Y3	Z3	X4	Y4	Z4	X5	Y5	Z5	X6	Y6	Z6	X7	Y7	Z7	X8	Y8	Z8	X9	Y9	Z9	X10	Y10	Z10	X11	Y11	Z11	X12	Y12	Z12	X13	Y13	Z13	X14	Y14	Z14	X15	Y15	Z15	X16	Y16	Z16	X17	Y17	Z17	X18	Y18	Z18	X19	Y19	Z19	X20	Y20	Z20	X21	Y21	Z21	X22	Y22	Z22	X23	Y23	Z23	X24	Y24	Z24	X25	Y25	Z25	X26	Y26	Z26	X27	Y27	Z27	X28	Y28	Z28	X29	Y29	Z29	X30	Y30	Z30	X31	Y31	Z31	X32	Y32	Z32	X33	Y33	Z33	X34	Y34	Z34	X35	Y35	Z35	X36	Y36	Z36	X37	Y37	Z37	X38	Y38	Z38	X39	Y39	Z39	X40	Y40	Z40	X41	Y41	Z41	X42	Y42	Z42	X43	Y43	Z43	X44	Y44	Z44	X45	Y45	Z45	X46	Y46	Z46	X47	Y47	Z47	X48	Y48	Z48	X49	Y49	Z49	X50	Y50	Z50	X51	Y51	Z51	X52	Y52	Z52	X53	Y53	Z53	X54	Y54	Z54	X55	Y55	Z55	X56	Y56	Z56

529	2.645	-630.07	800.41	-269.81	-506.49	504.46	152.75	-593.48	1600.8	-65.59	-508.28	549.36	155.61	-620.41	1472.7	4.0452	-532.17	480.67	26.669	-720.29	50.633	122.68	-649.82	1080.9	-269.35	-632.53	320.31	147.24	-765.4	62.867	85.24	-783.38	91.964	159.67	-701.87	261.87	76.633	-383.88	25.227	-119.57	-560.04	774.86	-262.85	-587.69	1209	-237.99	-655.59	940.34	-274.93	-897.02	215.22	79.85	-532.4	1408	-167.52	-811.42	186.69	58.699	-565.02	921.93	293.42	-513.26	1026.8	-144.33	-487.15	520.25	-122.46	-490.26	581.72	-130.46	-447.37	304.67	-110	-707.39	1035.4	-31.622	-562.83	33.557	-48.646	-478.09	68.806	-14.58	-299.85	46.874	-58.072	-713.74	1033.6	37.169	-831.04	206.86	136.68	-499.16	59.951	-97.105	-531.41	1239.2	244.95	-446.47	688.47	-110.41	-419.18	1647.1	-35.928	-469.34	835.99	237.77	-633.86	1365	161.33	-592.18	1596.1	71.146	-506.09	673.46	-150.8	-505.73	496.25	2.3564	-436.42	396.21	-38.587	-473.64	786.71	284.04	-522.43	763.76	-167.64	-453.75	211.55	-40.982	-460.98	656.76	129.19	-447.51	303.92	-38.258	-347.24	32.121	-40.64	-602.61	1080	294.27	-540.6	735.58	180.72	-523.22	641.71	170.66	-630.63	314.29	72.799	-418.71	1646	38.81	-528.4	983.45	160.7	-502.58	1418.4	155.27	-542.88	802.26	257.7	-694.43	1218	11.792	-555.05	374.06	71.305
530	2.65	-621.51	800.53	-270.88	-496.86	506.33	152.07	-588.89	1601.3	-66.068	-499.11	551.07	154.94	-615.83	1473.2	3.3941	-521.86	482.7	25.862	-707.73	53.21	122.27	-643.3	1080.9	-270.4	-622.04	322.01	146.2	-752.9	65.034	84.711	-771.33	94.186	158.95	-691.22	263.54	75.492	-383.84	25.168	-119.62	-551.28	775.54	-263.84	-581.85	1209.2	-238.72	-648.03	940.25	-276.08	-886.48	215.48	78.55	-527.58	1408.5	-168.06	-800.48	187.91	57.486	-561.78	922.13	292.42	-508.72	1027.3	-145.01	-484.33	520.15	-122.72	-487.13	581.63	-130.73	-445.86	304.34	-110.12	-702.71	1035.8	-32.184	-562.85	33.557	-48.636	-478.03	68.751	-14.505	-299.62	46.47	-58.098	-708.97	1034	36.588	-820.26	208.08	135.51	-499.09	59.946	-97.062	-527.74	1239.5	244.41	-442.89	688.3	-110.86	-414.62	1647.7	-36.282	-465.95	836.08	237.21	-629.69	1365.5	160.51	-587.65	1596.5	70.662	-502.65	673.42	-151.17	-503.5	496.28	1.9224	-434.33	395.93	-38.833	-470.55	786.82	283.47	-518.66	763.76	-168.15	-452.83	211.3	-41.012	-452.93	658.95	128.93	-446.05	303.65	-38.365	-347.16	32.016	-40.558	-599.12	1080.2	293.11	-532.91	737.02	180.2	-515.19	643.26	170.05	-620.09	316.07	71.762	-414.19	1646.6	38.455	-523.48	983.77	160.41	-498.36	1418.8	154.95	-539.63	802.17	256.38	-689.79	1218.4	11.032	-544.95	376.39	70.376
531	2.655	-612.91	800.69	-271.94	-487.32	508.3	151.38	-584.29	1601.9	-66.528	-490.04	552.87	154.26	-611.25	1473.7	2.7612	-511.63	484.71	25.05	-694.73	55.691	121.89	-636.75	1080.9	-271.42	-611.52	323.67	145.19	-739.95	67.013	84.184	-758.97	96.185	158.21	-680.4	265.03	74.336	-383.79	25.105	-119.67	-542.48	776.27	-264.82	-576.02	1209.5	-239.44	-640.42	940.19	-277.22	-875.73	215.33	77.118	-522.78	1409	-168.59	-789.29	188.84	56.216	-558.53	922.35	291.43	-504.21	1027.9	-145.68	-481.55	520.05	-122.97	-483.9	581.58	-130.94	-444.4	304.01	-110.24	-698.04	1036.2	-32.712	-562.87	33.557	-48.627	-477.97	68.702	-14.435	-299.4	46.081	-58.121	-704.19	1034.4	36.046	-809.31	208.98	134.24	-499.03	59.945	-97.022	-524.1	1239.8	243.88	-439.34	688.19	-111.19	-410.05	1648.3	-36.617	-462.56	836.19	236.68	-625.54	1365.9	159.7	-583.12	1597	70.195	-499.17	673.42	-151.5	-501.24	496.3	1.5646	-432.29	395.65	-39.084	-467.47	786.96	282.93	-514.89	763.79	-168.61	-451.93	211.06	-41.047	-444.99	661.21	128.68	-444.62	303.39	-38.476	-347.08	31.902	-40.474	-595.63	1080.5	291.94	-525.3	738.54	179.67	-507.24	644.88	169.43	-609.46	317.76	70.738	-409.66	1647.1	38.117	-518.57	984.14	160.15	-494.16	1419.3	154.65	-536.37	802.08	255.03	-685.17	1218.9	10.281	-534.82	378.76	69.516
532	2.66	-604.27	800.89	-272.99	-477.87	510.33	150.69	-579.7	1602.4	-66.971	-481.05	554.74	153.57	-606.67	1474.2	2.1454	-501.48	486.68	24.237	-681.36	58.061	121.54	-630.19	1080.9	-272.44	-600.98	325.28	144.2	-726.6	68.796	83.656	-746.33	97.95	157.45	-669.44	266.34	73.177	-383.75	25.038	-119.72	-533.65	777.06	-265.77	-570.19	1209.8	-240.14	-632.79	940.17	-278.35	-864.75	214.75	75.569	-517.99	1409.6	-169.09	-777.83	189.48	54.899	-555.28	922.6	290.45	-499.75	1028.4	-146.35	-478.82	519.95	-123.21	-480.62	581.58	-131.11	-443	303.68	-110.37	-693.39	1036.6	-33.203	-562.88	33.558	-48.62	-477.92	68.659	-14.372	-299.2	45.703	-58.141	-699.43	1034.8	35.544	-798.18	209.58	132.9	-498.98	59.946	-96.984	-520.48	1240.2	243.36	-435.81	688.13	-111.41	-405.48	1648.9	-36.936	-459.15	836.31	236.18	-621.39	1366.3	158.91	-578.58	1597.5	69.746	-495.65	673.45	-151.8	-498.95	496.32	1.2866	-430.29	395.38	-39.341	-464.39	787.13	282.43	-511.12	763.84	-169.02	-451.06	210.83	-41.089	-437.14	663.54	128.44	-443.24	303.12	-38.593	-347.01	31.779	-40.389	-592.14	1080.7	290.77	-517.76	740.12	179.13	-499.36	646.57	168.8	-598.72	319.36	69.736	-405.14	1647.7	37.794	-513.66	984.57	159.88	-489.98	1419.7	154.37	-533.11	802.02	253.67	-680.56	1219.5	9.5357	-524.64	381.15	68.732
533	2.665	-595.6	801.15	-274.04	-468.5	512.43	150	-575.1	1603	-67.399	-472.15	556.67	152.87	-602.1	1474.8	1.5459	-491.41	488.62	23.426	-667.63	60.301	121.22	-623.61	1080.9	-273.44	-590.43	326.85	143.26	-712.88	70.377	83.12	-733.42	99.471	156.67	-658.32	267.47	72.028	-383.7	24.966	-119.78	-524.79	777.9	-266.71	-564.37	1210.2	-240.82	-625.12	940.2	-279.47	-853.55	213.78	73.92	-513.23	1410.1	-169.58	-766.12	189.82	53.545	-552.03	922.88	289.48	-495.31	1028.9	-147	-476.15	519.85	-123.44	-477.32	581.6	-131.26	-441.64	303.36	-110.5	-688.76	1037	-33.656	-562.9	33.561	-48.613	-477.87	68.622	-14.315	-299.01	45.336	-58.159	-694.67	1035.3	35.082	-786.88	209.87	131.5	-498.94	59.949	-96.949	-516.87	1240.6	242.85	-432.31	688.1	-111.54	-400.91	1649.5	-37.24	-455.73	836.46	235.71	-617.26	1366.8	158.14	-574.05	1598	69.313	-492.12	673.5	-152.07	-496.6	496.34	1.0879	-428.34	395.12	-39.604	-461.32	787.32	281.95	-507.35	763.91	-169.4	-450.22	210.6	-41.139	-429.39	665.93	128.21	-441.89	302.85	-38.716	-346.94	31.648	-40.304	-588.65	1081.1	289.6	-510.28	741.76	178.59	-491.54	648.31	168.16	-587.89	320.86	68.763	-400.6	1648.3	37.487	-508.75	985.05	159.61	-485.81	1420.2	154.1	-529.85	802	252.31	-675.97	1220	8.7949	-514.4	383.52	68.03
534	2.67	-586.89	801.45	-275.07	-459.22	514.57	149.33	-570.5	1603.6	-67.811	-463.35	558.64	152.18	-597.53	1475.3	0.96196	-481.44	490.51	22.624	-653.57	62.397	120.91	-617	1081	-274.42	-579.86	328.36	142.36	-698.81	71.756	82.568	-720.26	100.74	155.85	-647.05	268.41	70.897	-383.66	24.888	-119.84	-515.89	778.8	-267.64	-558.55	1210.5	-241.48	-617.42	940.27	-280.58	-842.13	212.43	72.189	-508.47	1410.7	-170.04	-754.17	189.86	52.164	-548.78	923.2	288.52	-490.9	1029.4	-147.64	-473.57	519.74	-123.66	-474.04	581.65	-131.39	-440.33	303.04	-110.65	-684.13	1037.4	-34.071	-562.92	33.565	-48.608	-477.82	68.59	-14.265	-298.84	44.978	-58.176	-689.92	1035.7	34.663	-775.41	209.85	130.05	-498.9	59.953	-96.916	-513.26	1241	242.35	-428.85	688.07	-111.62	-396.32	1650.1	-37.53	-452.31	836.63	235.26	-613.13	1367.3	157.38	-569.51	1598.6	68.897	-488.61	673.57	-152.32	-494.2	496.36	0.96382	-426.44	394.85	-39.874	-458.26	787.53	281.49	-503.59	764.01	-169.74	-449.41	210.38	-41.199	-421.74	668.35	127.99	-440.57	302.58	-38.848	-346.87	31.512	-40.218	-585.15	1081.4	288.43	-502.87	743.43	178.05	-483.78	650.09	167.54	-576.96	322.24	67.824	-396.06	1648.8	37.195	-503.85	985.58	159.32	-481.65	1420.8	153.83	-526.59	802.05	250.99	-671.39	1220.5	8.0573	-504.11	385.86	67.409
535	2.675	-578.16	801.81	-276.08	-450.04	516.75	148.67	-565.9	1604.2	-68.209	-454.63	560.65	151.5	-592.97	1475.9	0.39291	-471.56	492.37	21.833	-639.22	64.337	120.6	-610.39	1081.1	-275.39	-569.28	329.8	141.51	-684.43	72.934	81.994	-706.86	101.76	155.02	-635.65	269.16	69.793	-383.6	24.806	-119.92	-506.98	779.75	-268.54	-552.73	1210.9	-242.13	-609.7	940.39	-281.67	-830.47	210.7	70.398	-503.73	1411.4	-170.48	-741.98	189.63	50.765	-545.52	923.54	287.56	-486.51	1029.9	-148.27	-471.08	519.63	-123.88	-470.82	581.7	-131.52	-439.08	302.73	-110.81	-679.51	1037.8	-34.449	-562.94	33.572	-48.602	-477.78	68.563	-14.222	-298.67	44.63	-58.193	-685.18	1036.2	34.284	-763.76	209.51	128.56	-498.88	59.957	-96.885	-509.64	1241.5	241.84	-425.43	688.03	-111.68	-391.73	1650.6	-37.806	-448.87	836.82	234.84	-609	1367.8	156.64	-564.97	1599.1	68.496	-485.14	673.65	-152.56	-491.75	496.39	0.90513	-424.6	394.58	-40.149	-455.2	787.77	281.05	-499.84	764.12	-170.05	-448.62	210.17	-41.268	-414.17	670.81	127.77	-439.29	302.31	-38.989	-346.8	31.372	-40.134	-581.64	1081.8	287.26	-495.51	745.13	177.53	-476.09	651.9	166.92	-565.94	323.52	66.921	-391.5	1649.4	36.917	-498.95	986.18	159	-477.5	1421.3	153.57	-523.34	802.17	249.74	-666.82	1221	7.3229	-493.75	388.14	66.865
536	2.68	-569.41	802.23	-277.08	-440.95	518.95	148.03	-561.29	1604.8	-68.593	-446.02	562.68	150.82	-588.42	1476.5	-0.16217	-461.79	494.19	21.061	-624.59	66.11	120.29	-603.76	1081.3	-276.34	-558.69	331.16	140.7	-669.77	73.913	81.393	-693.22	102.52	154.16	-624.11	269.71	68.723	-383.55	24.717	-120	-498.05	780.76	-269.43	-546.91	1211.4	-242.76	-601.96	940.55	-282.75	-818.58	208.62	68.568	-499	1412	-170.91	-729.56	189.12	49.358	-542.25	923.92	286.63	-482.13	1030.4	-148.89	-468.68	519.52	-124.1	-467.71	581.75	-131.66	-437.87	302.42	-110.97	-674.9	1038.2	-34.79	-562.96	33.582	-48.597	-477.73	68.54	-14.185	-298.52	44.289	-58.209	-680.45	1036.7	33.945	-751.93	208.87	127.05	-498.86	59.962	-96.856	-506.01	1242	241.34	-422.07	687.95	-111.73	-387.12	1651.2	-38.072	-445.43	837.03	234.44	-604.86	1368.3	155.92	-560.42	1599.7	68.109	-481.73	673.73	-152.8	-489.24	496.41	0.89919	-422.81	394.31	-40.433	-452.14	788.02	280.63	-496.11	764.25	-170.33	-447.86	209.97	-41.348	-406.7	673.28	127.56	-438.04	302.04	-39.142	-346.72	31.227	-40.052	-578.13	1082.2	286.11	-488.22	746.85	177.02	-468.45	653.72	166.32	-554.83	324.69	66.055	-386.94	1649.9	36.652	-494.05	986.82	158.65	-473.35	1421.9	153.31	-520.08	802.38	248.58	-662.26	1221.6	6.5925	-483.31	390.33	66.389
